# xmcd
#
# Track frame offsets:
#	225
#	10878
#	25141
#	37921
#	50208
#	65476
#	77725
#	89823
#	104069
#	116803
#	127812
#	147628
#	158198
#	177774
#	194873
#	209178
#	223050
#	239959
#	256620
#
# Disc length: 3654 seconds
#
# Revision: 0
# Processed by: cddbd v1.5.2PL0 Copyright (c) Steve Scherf et al.
# Submitted via: audiograbber 1.83.01
#
DISCID=2f0e4313
DTITLE=Chad Bradford - Dollar Short
DYEAR=2003
DGENRE=Country
TTITLE0=Amy
TTITLE1=She Disappears
TTITLE2=Green On The Vine
TTITLE3=It Goes Away
TTITLE4=Hometown
TTITLE5=In Your Eyes
TTITLE6=Things I Hide
TTITLE7=Where I Belong
TTITLE8=Trade Every Dollar
TTITLE9=Rosalyna
TTITLE10=Letting Go
TTITLE11=Granddad
TTITLE12=She Comes To Mr After Midnight
TTITLE13=Facing The end
TTITLE14=Run Away (She And I)
TTITLE15=Hanging By A Shoe String
TTITLE16=Blue Moonlight
TTITLE17=Under Solid Prayer
TTITLE18=Just Want To Do Things Right
EXTD=
EXTT0=
EXTT1=
EXTT2=
EXTT3=
EXTT4=
EXTT5=
EXTT6=
EXTT7=
EXTT8=
EXTT9=
EXTT10=
EXTT11=
EXTT12=
EXTT13=
EXTT14=
EXTT15=
EXTT16=
EXTT17=
EXTT18=
PLAYORDER=
